<?xml version="1.0" encoding="UTF-8" standalone="no"?>
<!-- Created with Inkscape (http://www.inkscape.org/) -->

<svg
   version="1.1"
   id="svg1"
   width="1158"
   height="228"
   viewBox="0 0 1158 228"
   xmlns="http://www.w3.org/2000/svg"
   xmlns:svg="http://www.w3.org/2000/svg">
  <defs
     id="defs1" />
  <g
     id="layer4"
     style="display:inline">
    <ellipse
       style="display:inline;fill:#0b0d08;fill-opacity:1;stroke:#0b0d08;stroke-width:1.41053;stroke-linecap:round;stroke-linejoin:round;stroke-opacity:1"
       id="path6"
       cx="101.50632"
       cy="142.35257"
       rx="87.18985"
       ry="49.561081"
       transform="matrix(0.97073975,-0.24013401,0.02402985,0.99971124,0,0)" />
    <ellipse
       style="display:inline;opacity:1;fill:#ffffff;fill-opacity:1;stroke:#ffffff;stroke-width:1.31328;stroke-linecap:round;stroke-linejoin:round;stroke-opacity:1"
       id="path6-6"
       cx="101.47925"
       cy="142.38231"
       rx="80.82679"
       ry="46.342331"
       transform="matrix(0.97067442,-0.24039793,0.02285747,0.99973873,0,0)" />
    <ellipse
       style="display:inline;opacity:1;fill:#d4000d;fill-opacity:1;stroke:#d4000d;stroke-width:1.9075;stroke-linecap:round;stroke-linejoin:round;stroke-opacity:1"
       id="path2"
       cx="44.288517"
       cy="148.5247"
       rx="71.754875"
       ry="42.888371"
       transform="matrix(0.91990827,-0.39213361,0.41152024,0.91140062,0,0)" />
  </g>
  <g
     id="layer1"
     style="display:inline">
    <path
       style="opacity:1;fill:#fec400;fill-opacity:1;stroke:#fec400;stroke-width:1.00157;stroke-linecap:round;stroke-linejoin:round;stroke-opacity:1"
       d="m 35.0625,144.53125 c -0.79073,-0.20702 1.523986,5.3556 5.885267,9.77394 4.380942,4.43826 11.093427,7.8459 11.864733,7.81981 23.916906,-0.809 35.237009,-22.17997 34.25,-22.125 -9.544706,0.53156 -11.583276,-6.60223 -12.4375,-6.6875 -0.741231,-0.074 -2.118906,8.3573 -15.235026,13.11992 -7.950396,2.88688 -16.175593,0.23308 -24.327474,-1.90117 z"
       id="path5" />
    <path
       style="opacity:1;fill:#fec400;fill-opacity:1;stroke:#fec400;stroke-width:1.00157;stroke-linecap:round;stroke-linejoin:round;stroke-opacity:1"
       d="m 93.4375,122.25 c 5.851675,-0.0154 35.18542,-7.3403 42.25,3.9375 4.11638,6.57133 4.40558,10.1987 4.0625,15.125 -0.86675,12.44576 -35.56795,21.80407 -33.48018,20.65387 8.54623,-4.7083 20.49379,-20.5338 18.16768,-24.94676 -5.41028,-10.26407 -47.635438,13.16537 -48.650827,-11.63107 -0.571663,-13.96039 28.871897,-29.057826 41.742357,-36.722487 4.58105,-2.728117 13.95333,8.095457 10.67364,9.745559 C 115.10243,105.0027 91.557996,122.25493 93.4375,122.25 Z"
       id="path4" />
    <path
       style="display:inline;fill:#fec400;fill-opacity:1;stroke:#fec400;stroke-width:1.00157;stroke-linecap:round;stroke-linejoin:round;stroke-opacity:1"
       d="m 149.45236,105.49578 c 0.12042,-0.48172 7.94831,-9.393459 7.94831,-9.393459 l 13.89355,-1.65858 1.10596,1.150185 c 0,0 -10.71798,24.468504 -24.32778,26.545364 -8.26098,0.96455 -10.65524,-5.68318 -12.14786,-10.91927 -2.23293,-7.83308 -1.89705,-23.422872 -13.01628,-26.061269 -18.81675,-2.831747 -47.640152,12.870433 -47.640152,12.870433 0,0 -1.67434,-2.103623 -1.669432,-3.396318 0.01675,-4.410093 0.419021,-8.966706 0.976966,-12.199234 3.109474,-2.26418 22.084389,-10.635389 38.172368,-12.114501 9.91228,-0.911324 21.04124,2.95878 23.44345,5.185264 11.36267,8.014812 13.2609,29.991385 13.2609,29.991385 z"
       id="path3" />
    <ellipse
       style="display:inline;opacity:1;fill:#fec400;fill-opacity:1;stroke:#fec400;stroke-width:1.17522;stroke-linecap:round;stroke-linejoin:round;stroke-opacity:1"
       id="path1"
       cx="157.10214"
       cy="69.93148"
       rx="16.282946"
       ry="16.377708" />
  </g>
  <path
     d="m 818.38762,86.365759 c -1.408,-1.024 -3.584,-1.664 -6.4,-1.664 -4.224,0 -7.552,0.896 -9.856,2.688 -2.304,1.792 -3.968,3.84 -4.992,6.016 h -1.024 l 7.552,-32.384 c 0,-0.384 -0.256,-0.64 -0.512,-0.64 h -18.816 c -0.512,0 -0.768,0.256 -0.768,0.64 l -20.608,89.472001 c -0.256,0.512 0,0.64 0.512,0.64 h 18.688 c 0.256,0 0.512,-0.128 0.768,-0.64 l 11.008,-47.744 c 0.384,-1.408 0.768,-2.304 1.28,-2.816001 0.384,-0.512 1.024,-0.768 1.92,-0.768 1.024,0 1.664,0.512 1.664,1.408001 l -0.256,1.664 -11.136,48.256 c -0.256,0.512 0,0.64 0.512,0.64 h 18.688 c 0.256,0 0.512,-0.128 0.768,-0.64 l 12.416,-53.376001 c 0.512,-2.176 0.768,-3.968 0.768,-5.376 0,-2.432 -0.768,-4.224 -2.176,-5.376 z m 44.9279,47.616001 7.168,-31.104 c 0.384,-1.792 0.64,-3.456001 0.64,-4.736001 0,-4.096 -1.536,-7.296 -4.608,-9.728 -3.072,-2.432 -7.68,-3.712 -14.08,-3.712 -14.72,0 -23.552,6.144 -26.496,18.176001 l -1.408,5.888 c 0,0.512 0.128,0.64 0.512,0.64 h 18.816 c 0.256,0 0.512,-0.128 0.768,-0.64 l 1.408,-5.888 c 0.256,-1.28 0.64,-2.176 1.024,-2.816 0.384,-0.512001 1.024,-0.896001 2.048,-0.896001 1.152,0 1.792,0.64 1.792,1.664001 0,0.384 -0.128,0.768 -0.128,1.024 l -0.256,1.024 -1.536,6.528 0.384,-2.048 c -0.384,1.152 -0.768,1.92 -1.28,2.432 -0.512,0.512 -1.408,1.024 -2.432,1.28 l -14.08,3.968 c -3.456,1.024 -6.016,2.432 -7.552,4.224 -1.536,1.792 -2.816,4.352 -3.712,7.936 l -2.944,13.184 c -0.512,1.92 -0.768,3.584 -0.768,5.12 0,2.432 0.768,4.224 2.304,5.248 1.536,1.024 3.968,1.536 7.424,1.536 4.096,0 7.168,-0.768 9.216,-2.56 2.048,-1.792 3.584,-3.968 4.736,-6.528 h 0.896 c -0.512,5.376 2.56,7.936 9.472,7.936 h 12.416 c 0.256,0 0.512,-0.128 0.768,-0.64 l 3.072,-13.568 c 0.128,-0.384 0,-0.64 -0.512,-0.64 h -1.536 c -0.768,0 -1.152,0 -1.408,-0.128 -0.256,-0.128 -0.384,-0.384 -0.384,-0.768 0,0 0,-0.512 0.256,-1.408 z m -24.704,1.024 0.256,-1.664 1.664,-6.912 c 0.512,-2.048 1.28,-3.2 2.304,-3.584 l 1.92,-0.768 c 0.512,0 0.896,-0.256 1.408,-0.64 l -3.072,12.8 c -0.512,1.664 -1.408,2.432 -2.688,2.432 -1.28,0 -1.792,-0.512 -1.792,-1.664 z m 31.35991,15.488 c -0.256,0.512 0,0.64 0.512,0.64 h 18.688 c 0.256,0 0.512,-0.128 0.768,-0.64 l 20.736,-89.472001 c 0,-0.384 -0.256,-0.64 -0.512,-0.64 h -18.816 c -0.512,0 -0.768,0.256 -0.768,0.64 z m 29.56812,0 c -0.256,0.512 0,0.64 0.512,0.64 h 18.688 c 0.256,0 0.512,-0.128 0.768,-0.64 l 20.736,-89.472001 c 0,-0.384 -0.256,-0.64 -0.512,-0.64 h -18.816 c -0.512,0 -0.768,0.256 -0.768,0.64 z m 79.74411,-62.080001 c -3.072,-2.432 -7.68,-3.712 -13.952,-3.712 -7.552,0 -13.568,1.792 -17.92,5.12 -4.48,3.328 -7.296,7.808 -8.576,13.312001 l -7.168,30.848 c -0.512,1.92 -0.64,3.584 -0.64,4.864 0,4.224 1.536,7.552 4.608,9.984 3.072,2.432 7.68,3.584 14.08,3.584 7.424,0 13.44,-1.664 17.92,-4.992 4.352,-3.328 7.296,-7.808 8.576,-13.44 l 1.792,-7.936 c 0,-0.384 -0.256,-0.64 -0.512,-0.64 h -18.688 c -0.512,0 -0.768,0.256 -0.768,0.64 l -2.048,8.96 c -0.512,1.408 -0.896,2.432 -1.28,3.072 -0.384,0.64 -1.024,0.896 -1.92,0.896 -1.28,0 -1.792,-0.512 -1.792,-1.664 0,-0.256 0.128,-1.024 0.512,-2.304 l 2.944,-13.056 h 23.808 c 0.512,0 0.768,-0.256 0.896,-0.768 l 1.024,-4.352 v -0.128 l 3.072,-13.568 c 0.384,-1.792 0.64,-3.456001 0.64,-4.864001 0,-4.096 -1.536,-7.424 -4.608,-9.856 z m -22.4,23.424001 2.176,-9.728 c 0.384,-2.560001 1.408,-3.968001 3.2,-3.968001 0.512,0 0.896,0.128 1.152,0.384 0.256,0.256 0.384,0.768 0.384,1.28 0,0.384001 -0.128,1.152001 -0.256,2.304001 l -2.176,9.728 z m 79.23194,-25.472001 c -1.408,-1.024 -3.584,-1.664 -6.4,-1.664 -4.352,0 -7.68,0.896 -9.984,2.688 -2.304,1.792 -3.968,3.712 -4.864,6.016 h -1.024 l 1.536,-6.784 c 0.128,-0.384 0,-0.64 -0.384,-0.64 h -18.81595 c -0.512,0 -0.768,0.256 -0.768,0.64 l -14.72,63.872001 c -0.256,0.512 0,0.64 0.512,0.64 h 18.688 c 0.25595,0 0.51195,-0.128 0.76795,-0.64 l 10.752,-46.464 c 0.384,-1.92 0.768,-3.2 1.28,-3.84 0.384,-0.640001 1.152,-1.024001 2.176,-1.024001 1.024,0 1.664,0.512 1.664,1.408001 l -0.256,1.664 -11.136,48.256 c -0.256,0.512 0,0.64 0.512,0.64 h 18.688 c 0.256,0 0.512,-0.128 0.768,-0.64 l 12.416,-53.376001 c 0.512,-2.176 0.768,-3.968 0.768,-5.376 0,-2.432 -0.768,-4.224 -2.176,-5.376 z m 56.064,0.256 c 0,-0.384 -0.256,-0.64 -0.512,-0.64 h -18.688 c -0.512,0 -0.768,0.256 -0.896,0.64 l -1.536,6.912 h -0.896 c -0.256,-5.76 -3.84,-8.704 -10.752,-8.704 -3.968,0 -7.04,1.024 -9.088,2.816 -2.048,1.92 -3.584,4.992 -4.48,9.216 l -9.216,39.808001 c -0.512,2.048 -0.768,3.84 -0.768,5.248 0,2.56 0.64,4.48 2.176,5.504 1.408,1.152 3.712,1.664 6.784,1.664 4.224,0 7.424,-0.768 9.472,-2.432 2.048,-1.664 3.712,-3.712 4.992,-6.144 h 0.896 l -3.584,15.488 c -0.256,0.768 -0.512,1.408 -0.768,1.792 -0.384,0.384 -1.024,0.512 -1.92,0.512 -1.28,0 -1.92,-0.384 -1.92,-1.28 0,-0.384 0,-0.768 0.128,-1.024 l 0.896,-3.712 c 0.128,-0.384 0,-0.64 -0.512,-0.64 h -18.688 c -0.384,0 -0.64,0.256 -0.768,0.64 l -0.896,3.584 c -0.384,1.28 -0.512,2.688 -0.512,4.096 0,3.84 1.536,7.04 4.608,9.344 3.072,2.304 7.936,3.456 14.336,3.456 7.552,0 13.568,-1.664 17.92,-5.12 4.352,-3.328 7.168,-7.68 8.448,-13.056 z m -24.192,17.536001 -5.888,25.6 c -0.512,2.048 -0.896,3.456 -1.28,4.096 -0.512,0.64 -1.152,0.896 -2.176,0.896 -1.152,0 -1.664,-0.512 -1.664,-1.536 l 0.256,-1.664 6.784,-28.928 c 0.256,-1.152 0.512,-2.048 1.024,-2.56 0.384,-0.512001 1.024,-0.768001 1.792,-0.768001 0.512,0 1.024,0.128 1.28,0.384 0.256,0.256 0.384,0.768001 0.384,1.280001 0,0.896 -0.256,1.92 -0.512,3.2 z m 69.248,-15.744001 c -3.072,-2.432 -7.68,-3.712 -13.952,-3.712 -7.552,0 -13.568,1.792 -17.92,5.12 -4.48,3.328 -7.296,7.808 -8.576,13.312001 l -7.168,30.848 c -0.512,1.92 -0.64,3.584 -0.64,4.864 0,4.224 1.536,7.552 4.608,9.984 3.072,2.432 7.68,3.584 14.08,3.584 7.424,0 13.44,-1.664 17.92,-4.992 4.352,-3.328 7.296,-7.808 8.576,-13.44 l 1.792,-7.936 c 0,-0.384 -0.256,-0.64 -0.512,-0.64 h -18.688 c -0.512,0 -0.768,0.256 -0.768,0.64 l -2.048,8.96 c -0.512,1.408 -0.896,2.432 -1.28,3.072 -0.384,0.64 -1.024,0.896 -1.92,0.896 -1.28,0 -1.792,-0.512 -1.792,-1.664 0,-0.256 0.128,-1.024 0.512,-2.304 l 2.944,-13.056 h 23.808 c 0.512,0 0.768,-0.256 0.896,-0.768 l 1.024,-4.352 v -0.128 l 3.072,-13.568 c 0.384,-1.792 0.64,-3.456001 0.64,-4.864001 0,-4.096 -1.536,-7.424 -4.608,-9.856 z m -22.4,23.424001 2.176,-9.728 c 0.384,-2.560001 1.408,-3.968001 3.2,-3.968001 0.512,0 0.896,0.128 1.152,0.384 0.256,0.256 0.384,0.768 0.384,1.28 0,0.384001 -0.128,1.152001 -0.256,2.304001 l -2.176,9.728 z"
     id="text4"
     style="font-size:128px;font-family:'Fixture Italic';-inkscape-font-specification:'Fixture Italic, ';fill:#fec400;stroke:#fec400;stroke-width:0.967559;stroke-linecap:round;stroke-linejoin:round"
     aria-label="hallenge" />
  <path
     d="m 705.06023,159.83763 c 3.88266,2.83732 9.70665,4.18132 17.47196,4.18132 9.85598,0 17.47196,-1.792 23.14662,-5.67465 5.52532,-3.73333 9.10931,-9.55732 10.90131,-17.32263 l 5.07732,-21.80262 c 0.14933,-0.448 0,-0.74666 -0.59733,-0.74666 h -23.14662 c -0.448,0 -0.74666,0.29866 -0.896,0.74666 l -4.92799,21.35462 c -0.44799,1.792 -1.04533,3.13599 -1.64266,3.73332 -0.74666,0.59734 -1.79199,0.896 -3.13599,0.896 -1.19466,0 -1.94133,-0.14933 -2.38933,-0.448 -0.448,-0.29866 -0.59733,-1.04533 -0.59733,-1.94133 0,-0.29866 0,-1.04533 0.29867,-2.23999 l 14.33596,-61.823859 c 0.448,-1.791996 1.04533,-2.98666 1.64267,-3.583992 0.59733,-0.597332 1.64266,-1.045331 3.13599,-1.045331 1.04533,0 1.79199,0.298666 2.23999,0.597332 0.448,0.298666 0.74667,0.895998 0.74667,1.642663 0,1.045331 -0.14933,1.791996 -0.29867,2.389328 l -4.33065,18.815957 c -0.29867,0.597332 0,0.746665 0.59733,0.746665 h 23.14661 c 0.29867,0 0.59733,-0.149333 0.896,-0.746665 l 4.47999,-19.413289 c 0.59733,-2.389328 0.896,-4.629323 0.896,-6.719985 0,-5.375988 -2.09066,-9.407978 -6.12266,-12.095972 -4.03199,-2.687994 -10.15464,-4.031991 -18.51729,-4.031991 -8.95998,0 -16.27729,1.941329 -21.95195,5.823987 -5.67465,3.882657 -9.40798,9.557311 -11.05064,17.023961 l -14.63463,62.869191 c -0.59733,2.53866 -0.74667,4.62932 -0.74667,6.27198 0,5.67466 1.94133,9.85598 5.97332,12.54398 z"
     id="text4-2"
     style="font-size:149.333px;font-family:'Fixture Italic';-inkscape-font-specification:'Fixture Italic, ';fill:#fec400;stroke:#fec400;stroke-width:0.967559;stroke-linecap:round;stroke-linejoin:round"
     aria-label="C" />
  <path
     d="m 534.20929,150.54323 c -0.256,0.512 0,0.64 0.512,0.64 h 18.688 c 0.256,0 0.512,-0.128 0.768,-0.64 l 20.736,-89.472002 c 0,-0.384 -0.256,-0.64 -0.512,-0.64 h -18.816 c -0.512,0 -0.768,0.256 -0.768,0.64 z M 623.6814,86.671228 c 0.128,-0.384 0,-0.64 -0.512,-0.64 h -18.816 c -0.384,0 -0.64,0.256 -0.768,0.64 l -11.264,48.640002 c -0.384,1.024 -0.768,1.792 -1.152,2.176 -0.384,0.384 -0.896,0.512 -1.664,0.512 -1.28,0 -1.792,-0.512 -1.792,-1.536 l 0.256,-1.536 11.136,-48.256002 c 0.128,-0.384 0,-0.64 -0.512,-0.64 h -18.688 c -0.384,0 -0.64,0.256 -0.768,0.64 l -12.416,53.376002 c -0.512,2.176 -0.768,3.968 -0.768,5.376 0,2.56 0.64,4.352 2.048,5.376 1.408,1.152 3.584,1.664 6.528,1.664 7.424,0 12.416,-2.816 14.976,-8.704 h 0.896 l -1.536,6.784 c 0,0.512 0.128,0.64 0.512,0.64 h 18.688 c 0.512,0 0.768,-0.128 0.768,-0.64 z m 50.04794,-0.128 c -1.536,-1.152 -3.712,-1.792 -6.656,-1.792 -6.912,0 -11.776,2.944 -14.336,8.704 h -1.024 l 7.552,-32.384 c 0,-0.384 -0.256,-0.64 -0.512,-0.64 h -18.816 c -0.512,0 -0.768,0.256 -0.768,0.64 l -20.608,89.472002 c -0.256,0.512 0,0.64 0.512,0.64 h 14.08 c 0.256,0 0.512,-0.128 0.768,-0.64 l 4.608,-7.808 h 1.024 c 0,2.688 0.768,4.864 2.176,6.528 1.28,1.792 4.352,2.56 9.216,2.56 3.968,0 7.168,-0.896 9.472,-2.816 2.304,-1.792 3.968,-4.864 4.992,-9.088 l 9.984,-42.752002 c 0.384,-2.048 0.64,-3.712 0.64,-4.992 0,-2.56 -0.768,-4.48 -2.304,-5.632 z m -19.328,14.080002 -0.256,1.664 -7.424,31.744 c -0.256,1.28 -0.512,2.048 -0.896,2.56 -0.512,0.512 -1.152,0.768 -1.92,0.768 -0.64,0 -1.024,-0.128 -1.28,-0.384 -0.256,-0.256 -0.384,-0.64 -0.384,-1.28 0,-0.768 0.128,-1.92 0.512,-3.2 h -0.128 l 6.656,-28.416 c 0.384,-1.92 0.768,-3.2 1.28,-3.84 0.384,-0.640002 1.152,-1.024002 2.176,-1.024002 1.024,0 1.664,0.512 1.664,1.408002 z"
     id="text8-6"
     style="font-size:128px;font-family:'Fixture Italic';-inkscape-font-specification:'Fixture Italic, ';fill:#d4000d;stroke:#d4000d;stroke-width:1.00157;stroke-linecap:round;stroke-linejoin:round"
     aria-label="lub" />
  <path
     d="m 475.04586,159.83531 c 3.88266,2.83732 9.70664,4.18132 17.47196,4.18132 9.85598,0 17.47196,-1.792 23.14661,-5.67465 5.52532,-3.73333 9.10932,-9.55732 10.90131,-17.32263 l 5.07732,-21.80262 c 0.14934,-0.448 0,-0.74666 -0.59733,-0.74666 h -23.14661 c -0.448,0 -0.74667,0.29866 -0.896,0.74666 l -4.92799,21.35462 c -0.448,1.792 -1.04533,3.13599 -1.64266,3.73333 -0.74667,0.59733 -1.792,0.89599 -3.13599,0.89599 -1.19467,0 -1.94133,-0.14933 -2.38933,-0.448 -0.448,-0.29866 -0.59733,-1.04533 -0.59733,-1.94132 0,-0.29867 0,-1.04534 0.29866,-2.24 l 14.33597,-61.823859 c 0.448,-1.791996 1.04533,-2.98666 1.64266,-3.583991 0.59733,-0.597332 1.64266,-1.045331 3.13599,-1.045331 1.04534,0 1.792,0.298666 2.24,0.597332 0.448,0.298666 0.74666,0.895998 0.74666,1.642662 0,1.045331 -0.14933,1.791996 -0.29866,2.389328 l -4.33066,18.815957 c -0.29866,0.597332 0,0.746665 0.59733,0.746665 h 23.14662 c 0.29866,0 0.59733,-0.149333 0.896,-0.746665 l 4.47999,-19.413289 c 0.59733,-2.389328 0.89599,-4.629322 0.89599,-6.719984 0,-5.375988 -2.09066,-9.407979 -6.12265,-12.095973 -4.03199,-2.687994 -10.15464,-4.03199 -18.51729,-4.03199 -8.95998,0 -16.2773,1.941328 -21.95195,5.823986 -5.67465,3.882658 -9.40798,9.557312 -11.05064,17.023961 L 469.8192,141.01935 c -0.59733,2.53866 -0.74666,4.62932 -0.74666,6.27198 0,5.67466 1.94133,9.85598 5.97332,12.54398 z"
     id="text8-6-4"
     style="font-size:149.333px;font-family:'Fixture Italic';-inkscape-font-specification:'Fixture Italic, ';fill:#d4000d;stroke:#d4000d;stroke-width:1.00157;stroke-linecap:round;stroke-linejoin:round"
     aria-label="C" />
  <path
     style="font-weight:800;font-stretch:condensed;font-size:128px;font-family:'Fixture Italic';-inkscape-font-specification:'Fixture Italic,  Ultra-Bold Condensed';fill:#0b0d08;stroke:#0b0d08;stroke-width:1.00157;stroke-linecap:round;stroke-linejoin:round"
     d="m 330.66478,80.259161 c -1.408,-1.024 -3.584,-1.664 -6.4,-1.664 -4.224,0 -7.552,0.896 -9.856,2.688 -2.304,1.792 -3.968,3.84 -4.992,6.016 h -1.024 l 1.536,-6.784 c 0.128,-0.384 0,-0.64 -0.384,-0.64 h -18.816 c -0.512,0 -0.768,0.256 -0.768,0.64 l -19.456,84.223999 c 0,0.512 0.128,0.64 0.512,0.64 h 18.688 c 0.512,0 0.768,-0.128 0.768,-0.64 l 6.272,-27.136 h 1.024 c 0,5.888 3.328,8.704 10.112,8.704 3.968,0 7.04,-0.896 9.344,-2.816 2.176,-1.92 3.712,-4.992 4.736,-9.216 l 10.112,-43.263999 c 0.512,-2.176 0.768,-3.968 0.768,-5.376 0,-2.432 -0.768,-4.224 -2.176,-5.376 z m -19.584,14.464 -0.256,1.536 -7.424,31.999999 c -0.256,1.28 -0.64,2.048 -1.024,2.56 -0.512,0.512 -1.152,0.768 -1.92,0.768 -0.64,0 -1.024,-0.128 -1.28,-0.384 -0.256,-0.256 -0.384,-0.64 -0.384,-1.28 0,-0.256 0.128,-1.408 0.512,-3.328 l 6.912,-29.823999 c 0.256,-1.408 0.64,-2.432 1.152,-2.944 0.384,-0.512 1.024,-0.768 1.92,-0.768 1.152,0 1.792,0.64 1.792,1.664 z m 24.9599,47.871999 c 3.072,2.56 7.68,3.712 14.08,3.712 7.424,0 13.44,-1.664 17.92,-5.12 4.48,-3.456 7.424,-7.936 8.704,-13.568 l 6.912,-30.335999 c 0.384,-1.792 0.64,-3.456 0.64,-4.864 0,-4.096 -1.536,-7.424 -4.608,-9.984 -3.072,-2.56 -7.68,-3.84 -13.952,-3.84 -7.552,0 -13.568,1.792 -17.92,5.248 -4.48,3.456 -7.296,7.936 -8.576,13.44 l -7.04,30.335999 c -0.512,1.92 -0.64,3.584 -0.64,4.864 0,4.224 1.408,7.552 4.48,10.112 z m 19.456,-11.648 c -0.512,0.64 -1.152,0.896 -2.048,0.896 -1.152,0 -1.664,-0.512 -1.664,-1.664 0,-0.64 0.128,-1.408 0.384,-2.176 l 7.168,-31.103999 c 0.256,-1.152 0.512,-2.048 1.024,-2.816 0.384,-0.64 1.024,-1.024 2.048,-1.024 1.024,0 1.664,0.64 1.664,1.664 0,0.512 -0.128,1.152 -0.256,2.176 l -7.168,31.103999 c -0.384,1.28 -0.768,2.304 -1.152,2.944 z m 80.25599,-50.687999 c -1.408,-1.024 -3.584,-1.664 -6.4,-1.664 -4.352,0 -7.424,0.896 -9.344,2.56 -2.048,1.792 -3.584,3.84 -4.608,6.144 h -1.024 l 1.536,-6.784 c 0.128,-0.384 0,-0.64 -0.384,-0.64 h -18.816 c -0.512,0 -0.768,0.256 -0.768,0.64 l -14.72,63.871999 c -0.256,0.512 0,0.64 0.512,0.64 h 18.688 c 0.256,0 0.512,-0.128 0.768,-0.64 l 11.008,-47.743999 c 0.256,-1.28 0.64,-2.304 1.024,-2.816 0.384,-0.512 0.896,-0.768 1.664,-0.768 0.768,0 1.28,0.512 1.28,1.28 l -0.256,1.536 -4.224,18.687999 c -0.256,0.512 -0.128,0.64 0.384,0.64 h 18.688 c 0.384,0 0.64,-0.128 0.896,-0.64 l 5.376,-23.551999 c 0.512,-2.176 0.768,-3.968 0.768,-5.504 0,-2.432 -0.768,-4.224 -2.048,-5.248 z m 40.70399,0.256 c 0,-0.384 -0.256,-0.64 -0.512,-0.64 h -7.68 l 3.712,-16.128 c 0,-0.384 -0.256,-0.64 -0.512,-0.64 h -18.688 c -0.512,0 -0.768,0.256 -0.768,0.64 l -3.712,16.128 h -5.888 c -0.512,0 -0.768,0.256 -0.768,0.64 l -3.2,13.568 c -0.256,0.512 0,0.64 0.512,0.64 h 5.888 l -8.32,35.455999 c -0.384,1.536 -0.512,3.072 -0.512,4.736 0,3.328 0.896,5.888 2.944,7.552 2.048,1.792 4.864,2.56 8.704,2.56 h 13.568 c 0.256,0 0.512,-0.128 0.768,-0.64 l 3.2,-13.568 c 0.128,-0.384 0,-0.64 -0.512,-0.64 h -3.712 c -1.408,0 -2.432,-0.128 -2.944,-0.384 -0.512,-0.256 -0.768,-0.896 -0.768,-1.792 0,-0.64 0.128,-1.536 0.384,-2.56 l 7.168,-30.719999 h 7.68 c 0.512,0 0.768,-0.128 0.768,-0.64 z"
     id="text8"
     aria-label="port" />
  <path
     style="font-weight:800;font-stretch:condensed;font-size:149.333px;font-family:'Fixture Italic';-inkscape-font-specification:'Fixture Italic,  Ultra-Bold Condensed';fill:#0b0d08;stroke:#0b0d08;stroke-width:1.00157;stroke-linecap:round;stroke-linejoin:round"
     d="m 212.78833,165.53742 c 4.03199,2.68799 10.30398,4.03199 18.66663,4.03199 8.95997,0 16.27729,-1.94133 21.95195,-5.82399 5.67465,-3.88265 9.25864,-9.55731 11.05064,-17.17329 l 3.73332,-16.2773 c 0.29867,-1.94133 0.59733,-3.43466 0.59733,-4.47999 0,-4.18132 -1.34399,-7.61598 -3.88265,-10.45331 -2.53867,-2.68799 -6.12266,-5.82398 -10.90131,-9.10931 -0.59733,-0.29866 -1.792,-1.04533 -3.58399,-2.23999 -1.792,-1.19467 -3.28533,-2.38933 -4.47999,-3.584 -1.19467,-1.194659 -1.792,-2.687989 -1.792,-4.479985 0,-0.597332 0,-1.045331 0.14933,-1.343997 l 2.53866,-10.453309 c 0.29867,-1.791996 0.896,-2.98666 1.64267,-3.583992 0.59733,-0.597332 1.64266,-1.045331 3.13599,-1.045331 1.04533,0 1.792,0.298666 2.23999,0.597332 0.448,0.298666 0.74667,0.895998 0.74667,1.791996 0,0.298666 -0.14933,1.045331 -0.29867,2.239995 l -3.43466,14.783966 c -0.29866,0.597332 0,0.746665 0.59734,0.746665 h 23.14661 c 0.29867,0 0.59733,-0.149333 0.896,-0.746665 l 3.58399,-15.231965 c 0.59733,-2.389328 0.896,-4.629323 0.896,-6.719985 0,-5.375988 -2.09066,-9.557312 -6.12265,-12.245306 -4.032,-2.687993 -10.15465,-4.03199 -18.5173,-4.03199 -8.95998,0 -16.27729,1.941329 -21.95195,5.823986 -5.67465,3.882658 -9.40797,9.706645 -11.05064,17.173295 l -3.43466,14.634633 c -0.448,1.49333 -0.59733,2.986657 -0.59733,4.479987 0,2.83733 0.59733,5.37599 1.94133,7.46665 1.19466,2.09066 2.68799,3.88266 4.47999,5.37599 1.792,1.49333 4.33066,3.28533 7.61598,5.37599 3.73333,2.68799 6.42132,4.62932 8.06398,6.12265 1.49333,1.49333 2.38933,3.28533 2.38933,5.37599 0,0.74666 -0.14933,1.344 -0.14933,1.64266 l -2.68799,11.94664 c -0.448,1.792 -1.04534,3.13599 -1.64267,3.73333 -0.74666,0.59733 -1.79199,0.89599 -3.13599,0.89599 -1.19466,0 -1.94133,-0.14933 -2.38933,-0.448 -0.448,-0.29866 -0.59733,-1.04533 -0.59733,-1.94132 0,-0.29867 0,-1.04534 0.29867,-2.24 l 3.88265,-16.72529 c 0.14934,-0.448 0,-0.74667 -0.59733,-0.74667 H 212.639 c -0.448,0 -0.74667,0.29867 -0.896,0.74667 l -4.03199,17.17329 c -0.59733,2.38933 -0.896,4.62932 -0.896,6.71998 0,5.52532 1.94133,9.55732 5.97332,12.24531 z"
     id="text8-9"
     aria-label="S" />
</svg>
